<svg xmlns="http://www.w3.org/2000/svg" viewBox="0 0 100 100" width="100" height="100">
  <defs>
    <linearGradient id="githubGradient" x1="0%" y1="0%" x2="100%" y2="100%">
      <stop offset="0%" style="stop-color:#333;stop-opacity:1" />
      <stop offset="100%" style="stop-color:#24292e;stop-opacity:1" />
    </linearGradient>
  </defs>
  
  <!-- Background circle -->
  <circle cx="50" cy="50" r="45" fill="url(#githubGradient)" opacity="0.9"/>
  
  <!-- GitHub Octocat -->
  <path d="M50 15C31.3 15 16 30.3 16 49c0 15 9.7 27.7 23.2 32.2 1.7.3 2.3-.7 2.3-1.6 0-.8 0-2.9 0-5.7-9.5 2.1-11.5-4.6-11.5-4.6-1.5-3.9-3.7-4.9-3.7-4.9-3.1-2.1.2-2.1.2-2.1 3.4.2 5.2 3.5 5.2 3.5 3 5.2 7.9 3.7 9.8 2.8.3-2.2 1.2-3.7 2.2-4.5-7.5-.9-15.4-3.8-15.4-16.8 0-3.7 1.3-6.7 3.5-9.1-.4-.9-1.5-4.3.3-9 0 0 2.8-.9 9.3 3.5 2.7-.8 5.6-1.1 8.5-1.1s5.8.4 8.5 1.1c6.5-4.4 9.3-3.5 9.3-3.5 1.8 4.7.7 8.1.3 9 2.2 2.4 3.5 5.4 3.5 9.1 0 13.1-7.9 15.9-15.4 16.8 1.2 1 2.3 3.1 2.3 6.2 0 4.5 0 8.1 0 9.2 0 .9.6 1.9 2.3 1.6C74.3 76.7 84 64 84 49c0-18.7-15.3-34-34-34z" 
        fill="white"/>
</svg>
