<svg width="1200" height="400" viewBox="0 0 1200 400" xmlns="http://www.w3.org/2000/svg">
  <defs>
    <!-- 夜空のグラデーション -->
    <linearGradient id="nightSkyGradient" x1="0%" y1="0%" x2="0%" y2="100%">
      <stop offset="0%" style="stop-color:#1a1a2e;stop-opacity:1" />
      <stop offset="30%" style="stop-color:#16213e;stop-opacity:1" />
      <stop offset="70%" style="stop-color:#0f3460;stop-opacity:1" />
      <stop offset="100%" style="stop-color:#533483;stop-opacity:1" />
    </linearGradient>
    
    <!-- 山のグラデーション -->
    <linearGradient id="mountainGradient1" x1="0%" y1="0%" x2="0%" y2="100%">
      <stop offset="0%" style="stop-color:#2c3e50;stop-opacity:0.9" />
      <stop offset="100%" style="stop-color:#34495e;stop-opacity:0.9" />
    </linearGradient>
    
    <linearGradient id="mountainGradient2" x1="0%" y1="0%" x2="0%" y2="100%">
      <stop offset="0%" style="stop-color:#34495e;stop-opacity:0.7" />
      <stop offset="100%" style="stop-color:#2c3e50;stop-opacity:0.7" />
    </linearGradient>
    
    <!-- 星の光効果 -->
    <filter id="glow">
      <feGaussianBlur stdDeviation="3" result="coloredBlur"/>
      <feMerge> 
        <feMergeNode in="coloredBlur"/>
        <feMergeNode in="SourceGraphic"/>
      </feMerge>
    </filter>
  </defs>
  
  <!-- 夜空の背景 -->
  <rect width="1200" height="400" fill="url(#nightSkyGradient)"/>
  
  <!-- 遠景の山 -->
  <polygon points="0,300 200,200 400,250 600,180 800,220 1000,160 1200,200 1200,400 0,400" fill="url(#mountainGradient2)"/>
  
  <!-- 近景の山 -->
  <polygon points="0,350 150,280 300,320 500,260 700,290 900,240 1100,280 1200,270 1200,400 0,400" fill="url(#mountainGradient1)"/>
  
  <!-- 星座 -->
  <g fill="#ffffff" filter="url(#glow)">
    <!-- 北斗七星風の星座 -->
    <circle cx="200" cy="80" r="2"/>
    <circle cx="220" cy="70" r="1.5"/>
    <circle cx="240" cy="75" r="2"/>
    <circle cx="260" cy="85" r="1.5"/>
    <circle cx="280" cy="90" r="2"/>
    <circle cx="300" cy="95" r="1.5"/>
    <circle cx="320" cy="100" r="2"/>
    
    <!-- その他の星 -->
    <circle cx="100" cy="50" r="1"/>
    <circle cx="350" cy="40" r="1"/>
    <circle cx="500" cy="60" r="1.5"/>
    <circle cx="650" cy="45" r="1"/>
    <circle cx="800" cy="70" r="1.5"/>
    <circle cx="950" cy="55" r="1"/>
    <circle cx="1100" cy="85" r="1"/>
    
    <!-- 散りばめられた小さな星 -->
    <circle cx="150" cy="120" r="0.8"/>
    <circle cx="450" cy="110" r="0.8"/>
    <circle cx="750" cy="130" r="0.8"/>
    <circle cx="1050" cy="120" r="0.8"/>
  </g>
  
  <!-- 星座の線（北斗七星風） -->
  <g stroke="#ffffff" stroke-width="0.5" opacity="0.3" fill="none">
    <polyline points="200,80 220,70 240,75 260,85 280,90 300,95 320,100"/>
  </g>
  
  <!-- 月 -->
  <g transform="translate(1000,80)">
    <circle cx="0" cy="0" r="25" fill="#f5f5dc" opacity="0.9"/>
    <circle cx="0" cy="0" r="25" fill="none" stroke="#ffffff" stroke-width="0.5" opacity="0.3"/>
    <!-- 月のクレーター -->
    <ellipse cx="-8" cy="-5" rx="3" ry="2" fill="#e6e6fa" opacity="0.6"/>
    <ellipse cx="5" cy="8" rx="2" ry="1.5" fill="#e6e6fa" opacity="0.6"/>
    <ellipse cx="-3" cy="10" rx="1.5" ry="1" fill="#e6e6fa" opacity="0.6"/>
  </g>
  
  <!-- 流れ星 -->
  <g opacity="0.6">
    <line x1="600" y1="30" x2="650" y2="50" stroke="#ffffff" stroke-width="1"/>
    <line x1="605" y1="32" x2="645" y2="48" stroke="#69ffa5" stroke-width="0.5"/>
  </g>
  
  <!-- 雲（薄い） -->
  <g fill="#ffffff" opacity="0.1">
    <ellipse cx="400" cy="200" rx="80" ry="30"/>
    <ellipse cx="420" cy="195" rx="60" ry="25"/>
    <ellipse cx="380" cy="195" rx="50" ry="20"/>
    
    <ellipse cx="800" cy="180" rx="70" ry="25"/>
    <ellipse cx="820" cy="175" rx="55" ry="20"/>
    <ellipse cx="780" cy="175" rx="45" ry="18"/>
  </g>
  
  <!-- オーロラ風の光 -->
  <g opacity="0.3">
    <ellipse cx="300" cy="150" rx="40" ry="80" fill="#69ffa5" transform="rotate(-15 300 150)"/>
    <ellipse cx="900" cy="170" rx="35" ry="70" fill="#4facfe" transform="rotate(20 900 170)"/>
  </g>
</svg>
